<svg xmlns="http://www.w3.org/2000/svg" xmlns:xlink="http://www.w3.org/1999/xlink" width="380" height="388" viewBox="0 0 380 388">
  <defs>
    <clipPath id="clip-SPRK_default_preset_name_custom_1">
      <rect width="380" height="388"/>
    </clipPath>
  </defs>
  <g id="SPRK_default_preset_name_custom_1" data-name="SPRK_default_preset_name_custom – 1" clip-path="url(#clip-SPRK_default_preset_name_custom_1)">
    <g id="Group_7" data-name="Group 7" transform="translate(-922 -661)">
      <g id="Group_6" data-name="Group 6" transform="translate(0 -24.848)">
        <line id="Line_1" data-name="Line 1" y2="226" transform="translate(1041.5 740.5)" fill="none" stroke="rgba(255,255,255, 0.9)" stroke-width="1"/>
        <line id="Line_2" data-name="Line 2" y2="199" transform="translate(1124 775.5)" fill="none" stroke="rgba(255,255,255, 0.9)" stroke-width="1"/>
        <line id="Line_3" data-name="Line 3" y2="179" transform="translate(1207.188 723.5)" fill="none" stroke="rgba(255,255,255, 0.9)" stroke-width="1"/>
        <line id="Line_5" data-name="Line 5" x2="175" transform="translate(1097.5 821.5)" fill="none" stroke="rgba(255,255,255, 0.9)" stroke-width="1"/>
        <line id="Line_6" data-name="Line 6" x2="173" transform="translate(1124 902)" fill="none" stroke="rgba(255,255,255, 0.9)" stroke-width="1"/>
        <line id="Line_18" data-name="Line 18" x2="133" transform="translate(936 902)" fill="none" stroke="rgba(255,255,255, 0.9)" stroke-width="1"/>
        <line id="Line_7" data-name="Line 7" x2="130" transform="translate(1143 983)" fill="none" stroke="rgba(255,255,255, 0.9)" stroke-width="1"/>
        <line id="Line_19" data-name="Line 19" x2="46" transform="translate(1042 983)" fill="none" stroke="rgba(255,255,255, 0.9)" stroke-width="1"/>
        <line id="Line_20" data-name="Line 20" x2="52" transform="translate(936 983)" fill="none" stroke="rgba(255,255,255, 0.9)" stroke-width="1"/>
        <line id="Line_8" data-name="Line 8" x1="56" y2="57" transform="translate(1197.5 771.5)" fill="none" stroke="rgba(255,255,255, 0.9)" stroke-width="1"/>
        <line id="Line_9" data-name="Line 9" x2="59" y2="59" transform="translate(982.5 759.5)" fill="none" stroke="rgba(255,255,255, 0.9)" stroke-width="1"/>
        <g id="Group_4" data-name="Group 4" transform="translate(401 653)">
          <g id="Rectangle_1" data-name="Rectangle 1" transform="translate(696 67)" fill="none" stroke="#ffffff" stroke-width="1">
            <rect width="56" height="56" rx="13" stroke="none"/>
            <rect x="0.5" y="0.5" width="55" height="55" rx="12.5" fill="none"/>
          </g>
          <path id="icons8-react" d="M14.825,5.177a4.585,4.585,0,0,0-2.469.58,5.263,5.263,0,0,0-2.33,3.4,14.178,14.178,0,0,0-.151,5.294c.087.657.217,1.345.368,2.044-.68.219-1.341.448-1.953.7a14.18,14.18,0,0,0-4.509,2.778A5.263,5.263,0,0,0,2,23.694a5.263,5.263,0,0,0,1.781,3.719A14.18,14.18,0,0,0,8.29,30.191c.612.253,1.272.482,1.953.7-.151.7-.281,1.386-.368,2.043a14.178,14.178,0,0,0,.151,5.294,5.263,5.263,0,0,0,2.33,3.4,5.263,5.263,0,0,0,4.111.317,14.179,14.179,0,0,0,4.66-2.516c.526-.4,1.054-.86,1.584-1.34.53.48,1.059.937,1.584,1.34a14.18,14.18,0,0,0,4.66,2.516,5.263,5.263,0,0,0,4.111-.317,5.263,5.263,0,0,0,2.33-3.4,14.179,14.179,0,0,0,.151-5.294c-.087-.656-.218-1.343-.368-2.042.68-.219,1.34-.449,1.953-.7a14.179,14.179,0,0,0,4.509-2.778,5.263,5.263,0,0,0,1.781-3.719,5.263,5.263,0,0,0-1.781-3.719A14.179,14.179,0,0,0,37.133,17.2c-.612-.253-1.272-.484-1.953-.7.151-.7.281-1.385.368-2.042A14.179,14.179,0,0,0,35.4,9.16a5.263,5.263,0,0,0-2.33-3.4,5.263,5.263,0,0,0-4.111-.317A14.179,14.179,0,0,0,24.3,7.957c-.525.4-1.055.861-1.584,1.34-.53-.48-1.059-.938-1.584-1.342a14.179,14.179,0,0,0-4.66-2.516A6.906,6.906,0,0,0,14.825,5.177Zm-.032,1.377a5.591,5.591,0,0,1,1.3.217,12.966,12.966,0,0,1,4.19,2.281c.467.359.943.766,1.42,1.195a39.043,39.043,0,0,0-4.02,4.741A39.048,39.048,0,0,0,11.57,16.1c-.133-.627-.248-1.243-.325-1.827A12.967,12.967,0,0,1,11.363,9.5a3.86,3.86,0,0,1,1.683-2.55A3.194,3.194,0,0,1,14.792,6.553Zm15.837,0a3.2,3.2,0,0,1,1.748.4A3.857,3.857,0,0,1,34.06,9.5a12.978,12.978,0,0,1,.117,4.771c-.077.584-.191,1.2-.324,1.826a39.049,39.049,0,0,0-6.115-1.111,39.038,39.038,0,0,0-4.02-4.74c.477-.429.951-.836,1.419-1.195A12.972,12.972,0,0,1,29.327,6.77,5.585,5.585,0,0,1,30.629,6.555ZM22.712,11.2A36.677,36.677,0,0,1,25.9,14.833c-1.042-.068-2.1-.113-3.189-.113s-2.148.045-3.19.113A36.676,36.676,0,0,1,22.712,11.2Zm0,4.9c1.468,0,2.895.072,4.27.2.8,1.128,1.572,2.327,2.306,3.6s1.386,2.543,1.965,3.8c-.579,1.255-1.23,2.525-1.965,3.8s-1.509,2.471-2.306,3.6c-1.375.126-2.8.2-4.27.2s-2.895-.072-4.27-.2c-.8-1.128-1.573-2.327-2.307-3.6s-1.385-2.544-1.963-3.8c.578-1.254,1.229-2.525,1.963-3.8s1.51-2.471,2.307-3.6C19.817,16.172,21.243,16.1,22.712,16.1Zm-6.08.4c-.58.869-1.15,1.764-1.694,2.706s-1.033,1.882-1.5,2.818a36.664,36.664,0,0,1-1.555-4.579A36.665,36.665,0,0,1,16.632,16.5Zm12.159,0a36.66,36.66,0,0,1,4.745.945,36.68,36.68,0,0,1-1.555,4.581c-.462-.937-.953-1.877-1.5-2.82S29.37,17.369,28.79,16.5ZM10.562,17.844a39.034,39.034,0,0,0,2.1,5.851,39.042,39.042,0,0,0-2.1,5.851c-.61-.2-1.2-.406-1.743-.631a12.975,12.975,0,0,1-4.072-2.488,3.858,3.858,0,0,1-1.366-2.732,3.858,3.858,0,0,1,1.366-2.732,12.974,12.974,0,0,1,4.072-2.488C9.363,18.249,9.953,18.042,10.562,17.844Zm24.3,0c.61.2,1.2.406,1.745.631a12.974,12.974,0,0,1,4.072,2.488,3.858,3.858,0,0,1,1.366,2.732,3.858,3.858,0,0,1-1.366,2.732A12.975,12.975,0,0,1,36.6,28.914c-.544.225-1.134.433-1.743.631a39.042,39.042,0,0,0-2.1-5.851A39.047,39.047,0,0,0,34.859,17.844ZM22.712,18.862a4.833,4.833,0,1,0,4.833,4.833A4.843,4.843,0,0,0,22.712,18.862Zm9.269,6.5a36.68,36.68,0,0,1,1.555,4.581,36.66,36.66,0,0,1-4.745.945c.58-.868,1.15-1.764,1.694-2.706S31.518,26.3,31.981,25.362Zm-18.538,0c.462.936.952,1.877,1.5,2.818s1.114,1.838,1.694,2.706a36.664,36.664,0,0,1-4.744-.945A36.664,36.664,0,0,1,13.443,25.364ZM11.57,31.29A39.048,39.048,0,0,0,17.685,32.4a39.044,39.044,0,0,0,4.02,4.741c-.477.429-.953.835-1.42,1.193a12.973,12.973,0,0,1-4.19,2.283,3.858,3.858,0,0,1-3.049-.182,3.862,3.862,0,0,1-1.684-2.55,12.98,12.98,0,0,1-.117-4.771C11.322,32.531,11.437,31.917,11.57,31.29Zm22.284,0c.133.627.246,1.242.324,1.826a12.978,12.978,0,0,1-.117,4.771,3.857,3.857,0,0,1-1.683,2.548,3.857,3.857,0,0,1-3.049.183,12.975,12.975,0,0,1-4.191-2.283c-.467-.359-.942-.766-1.419-1.195a39.038,39.038,0,0,0,4.02-4.74A39.049,39.049,0,0,0,33.854,31.29ZM19.521,32.556c1.042.068,2.1.113,3.19.113s2.147-.045,3.189-.113a36.677,36.677,0,0,1-3.189,3.637A36.667,36.667,0,0,1,19.521,32.556Z" transform="translate(701 70.826)" fill="#ffffff"/>
        </g>
        <g id="Group_5" data-name="Group 5" transform="translate(117 597)">
          <g id="Group_1" data-name="Group 1" transform="translate(559)">
            <g id="Rectangle_2" data-name="Rectangle 2" transform="translate(311 95)" fill="none" stroke="#ffffff" stroke-width="1">
              <rect width="56" height="56" rx="13" stroke="none"/>
              <rect x="0.5" y="0.5" width="55" height="55" rx="12.5" fill="none"/>
            </g>
            <path id="icons8-javascript" d="M26.711,22.4V38.907c0,2.533-.96,3.183-2.626,3.183a4.3,4.3,0,0,1-3.75-2.5l-4.127,2.5a9.216,9.216,0,0,0,8.185,5.252c4.493,0,7.571-2.389,7.571-7.637V22.4Zm16.349,0c-4.474,0-7.337,2.86-7.337,6.616,0,4.078,2.4,6.008,6.016,7.547l1.255.537c2.284,1,3.41,1.606,3.41,3.323,0,1.433-1.091,2.472-3.166,2.472-2.47,0-3.637-1.68-4.711-3.433L34.588,42.09a9.148,9.148,0,0,0,8.765,5.252c4.758,0,8.3-2.47,8.3-6.98,0-4.184-2.4-6.045-6.657-7.868l-1.255-.537c-2.149-.929-3.08-1.536-3.08-3.04a2.181,2.181,0,0,1,2.4-2.145c1.438,0,2.364.606,3.223,2.145l3.9-2.506A7.4,7.4,0,0,0,43.06,22.4Z" transform="translate(310.222 95.698)" fill="#ffffff"/>
          </g>
        </g>
        <g id="Rectangle_3" data-name="Rectangle 3" transform="translate(1087 974)" fill="none" stroke="#ffffff" stroke-width="1">
          <rect width="56" height="56" rx="13" stroke="none"/>
          <rect x="0.5" y="0.5" width="55" height="55" rx="12.5" fill="none"/>
        </g>
        <g id="Group_2" data-name="Group 2" transform="translate(508.201 711.083)">
          <path id="Path_1" data-name="Path 1" d="M294.917,302.139l9.176-17.286-5.562-8.24-4.587,30.962,13.111,7.645,13.895-7.645L316.878,285.4l-22.433,21.9" transform="translate(299.064 -5)" fill="#ffffff"/>
          <path id="Path_2" data-name="Path 2" d="M294.407,306.248l12.8-23.028,3.709,6.43Z" transform="translate(299.024 -5.581)" fill="#ffffff"/>
        </g>
        <g id="Rectangle_10" data-name="Rectangle 10" transform="translate(967 846)" fill="none" stroke="#ffffff" stroke-width="1">
          <rect width="56" height="56" rx="13" stroke="none"/>
          <rect x="0.5" y="0.5" width="55" height="55" rx="12.5" fill="none"/>
        </g>
        <path id="express-svgrepo-com" d="M28.49,21.123a1.815,1.815,0,0,1-2.25-.855l-4.1-5.664-.594-.792L16.8,20.276a1.74,1.74,0,0,1-2.139.84L20.783,12.9l-5.7-7.42a1.893,1.893,0,0,1,2.255.791l4.245,5.734L25.857,6.3A1.7,1.7,0,0,1,27.979,5.5l-2.21,2.933-2.994,3.9a.791.791,0,0,0,0,1.18l5.7,7.612ZM0,12.8l.5-2.463A6.86,6.86,0,0,1,11.3,6.454c2.25,1.768,2.811,4.27,2.7,7.09H1.325c-.205,5.037,3.429,8.078,8.077,6.524a4.841,4.841,0,0,0,3.065-3.414c.246-.791.651-.926,1.394-.7a6.43,6.43,0,0,1-3.073,4.7,7.445,7.445,0,0,1-8.673-1.108,7.805,7.805,0,0,1-1.947-4.58,3.179,3.179,0,0,0-.159-.791Q0,13.489,0,12.8Zm1.338-.34H12.8c-.071-3.651-2.375-6.242-5.449-6.265C3.93,6.147,1.483,8.68,1.332,12.443Z" transform="translate(981 860.963)" fill="#ffffff"/>
        <g id="Rectangle_8" data-name="Rectangle 8" transform="translate(1041 786)" fill="none" stroke="#ffffff" stroke-width="1">
          <rect width="56" height="56" rx="13" stroke="none"/>
          <rect x="0.5" y="0.5" width="55" height="55" rx="12.5" fill="none"/>
        </g>
        <g id="MongoDB_Black" data-name="MongoDB Black" transform="translate(992.734 631.175)">
          <path id="Path_5" data-name="Path 5" d="M78.954,168.883c-1.529-1.822-2.862-3.643-3.123-4.033a.061.061,0,0,0-.1,0c-.26.39-1.594,2.212-3.123,4.033-13.141,16.752,2.082,28.038,2.082,28.038l.13.1c.1,1.756.39,4.261.39,4.261h1.106s.293-2.5.39-4.261l.13-.1C76.9,196.921,92.1,185.634,78.954,168.883ZM75.8,196.661a7.142,7.142,0,0,1-.878-.878v-.033l.813-18.248a.049.049,0,1,1,.1,0l.813,18.248v.033A5.556,5.556,0,0,1,75.8,196.661Z" transform="translate(0 0)" fill="#ffffff"/>
        </g>
        <g id="Rectangle_9" data-name="Rectangle 9" transform="translate(1143 821)" fill="none" stroke="#ffffff" stroke-width="1">
          <rect width="56" height="56" rx="13" stroke="none"/>
          <rect x="0.5" y="0.5" width="55" height="55" rx="12.5" fill="none"/>
        </g>
        <path id="node-svgrepo-com" d="M28.369,6a.4.4,0,0,0-.4.4v7.32l-1.66-.968a.674.674,0,0,0-.676,0l-3.988,2.325a.671.671,0,0,0-.336.58v4.656a.669.669,0,0,0,.336.58l3.988,2.325a.674.674,0,0,0,.676,0L30.3,20.895a.671.671,0,0,0,.336-.58V7.639a.667.667,0,0,0-.33-.575L28.566,6.055A.393.393,0,0,0,28.369,6ZM15.316,12.662a.674.674,0,0,0-.338.091L10.99,15.078a.671.671,0,0,0-.336.58v4.656a.669.669,0,0,0,.336.58l3.988,2.325a.674.674,0,0,0,.676,0l3.988-2.325a.671.671,0,0,0,.336-.58V15.658a.669.669,0,0,0-.336-.58l-3.988-2.325A.674.674,0,0,0,15.316,12.662Zm21.309,0a.664.664,0,0,0-.338.091L32.3,15.078a.671.671,0,0,0-.336.58v4.656a.669.669,0,0,0,.336.58l3.868,2.339a.663.663,0,0,0,.679.005l1.9-1.106a.3.3,0,0,0,0-.515l-4.12-2.427V16.8l2-1.163,2,1.163v1.665a.2.2,0,0,0,.312.182c.5-.3,2.021-1.176,2.021-1.176a.666.666,0,0,0,.33-.575V15.658a.669.669,0,0,0-.336-.58l-3.988-2.325A.668.668,0,0,0,36.625,12.662Zm-31.964,0a.665.665,0,0,0-.338.091L.336,15.078A.675.675,0,0,0,0,15.661V21.6a.376.376,0,0,0,.564.325L2.333,20.9a.667.667,0,0,0,.33-.575V16.805l2-1.165,2,1.165v3.519a.667.667,0,0,0,.33.575l1.769,1.03a.375.375,0,0,0,.564-.325V15.661a.675.675,0,0,0-.336-.583L5,12.755A.665.665,0,0,0,4.661,12.664Zm21.309,2.973,2,1.165V19.17l-2,1.165-2-1.165V16.8ZM36.625,16.66l-1.142.666v1.329l1.142.663,1.142-.663V17.326ZM20.518,21.979a.806.806,0,0,0-.4.1l-3.746,2.164a.78.78,0,0,0-.4.681V29.25a.8.8,0,0,0,.4.682l.986.562a1.608,1.608,0,0,0,.861.234,1.034,1.034,0,0,0,1.108-1.168V25.288a.109.109,0,0,0-.109-.112H18.75a.112.112,0,0,0-.112.112v4.271c0,.324-.342.656-.9.377l-1.025-.591a.121.121,0,0,1-.057-.1V24.924a.118.118,0,0,1,.057-.1l3.746-2.159a.122.122,0,0,1,.117,0l3.748,2.159a.111.111,0,0,1,.057.1v4.323a.124.124,0,0,1-.057.1l-3.748,2.167a.122.122,0,0,1-.117,0l-.957-.57a.11.11,0,0,0-.091-.008,2.242,2.242,0,0,1-.564.26c-.065.02-.154.06.034.164l1.243.739a.854.854,0,0,0,.4.1.725.725,0,0,0,.39-.109l3.746-2.167a.781.781,0,0,0,.4-.682V24.926a.8.8,0,0,0-.4-.681l-3.746-2.164A.777.777,0,0,0,20.518,21.979Zm5.842,2a.719.719,0,1,0,.718.718A.711.711,0,0,0,26.361,23.974Zm-.008.114a.6.6,0,0,1,.611.6.622.622,0,0,1-.611.611.607.607,0,0,1,0-1.215Zm-.263.2v.809h.154V24.77h.143c.059,0,.073.025.086.07,0,.007.025.216.031.255h.166a.953.953,0,0,1-.039-.216c-.019-.1-.025-.175-.135-.182a.19.19,0,0,0,.156-.2c0-.214-.186-.213-.284-.213Zm.154.13h.13c.04,0,.117,0,.117.109a.11.11,0,0,1-.125.117h-.122Zm-4.721.661c-1.069,0-1.7.456-1.7,1.207,0,.823.635,1.043,1.66,1.147,1.225.123,1.321.3,1.321.538,0,.421-.338.6-1.129.6-.992,0-1.21-.246-1.282-.739a.108.108,0,0,0-.112-.091H19.79a.109.109,0,0,0-.109.112c0,.629.343,1.381,1.982,1.381,1.2,0,1.883-.467,1.883-1.285s-.545-1.025-1.7-1.181-1.282-.234-1.282-.507c0-.226.1-.523.957-.523.771,0,1.059.169,1.176.687a.1.1,0,0,0,.1.083h.487a.11.11,0,0,0,.078-.031.1.1,0,0,0,.026-.083C23.313,25.491,22.722,25.075,21.522,25.075Z" transform="translate(1150 830)" fill="#ffffff"/>
        <g id="Rectangle_5" data-name="Rectangle 5" transform="translate(1069 880)" fill="none" stroke="#ffffff" stroke-width="1">
          <rect width="56" height="56" rx="13" stroke="none"/>
          <rect x="0.5" y="0.5" width="55" height="55" rx="12.5" fill="none"/>
        </g>
        <path id="icons8-github" d="M18.74,2.161a18.783,18.783,0,0,0-4.712,36.19.866.866,0,0,0,1.131-.942V34.393a7.777,7.777,0,0,1-1.7.188A4.066,4.066,0,0,1,9.5,31a3.911,3.911,0,0,0-1.131-1.885c-.565-.188-.754-.188-.754-.377,0-.377.565-.377.754-.377,1.131,0,2.073,1.319,2.45,1.885a3.435,3.435,0,0,0,2.639,1.885,3.764,3.764,0,0,0,1.7-.377,4.777,4.777,0,0,1,1.885-3.393c-4.335-.942-7.54-3.393-7.54-7.54a8.884,8.884,0,0,1,2.262-5.655,6.991,6.991,0,0,1-.377-2.639,6.46,6.46,0,0,1,.565-3.016,8.483,8.483,0,0,1,5.278,2.45,10.2,10.2,0,0,1,3.581-.565,12.153,12.153,0,0,1,3.77.565,8.127,8.127,0,0,1,5.278-2.45,9.369,9.369,0,0,1,.377,3.016,6.267,6.267,0,0,1-.377,2.639,8.492,8.492,0,0,1,2.262,5.655c0,4.147-3.2,6.6-7.54,7.54A5.812,5.812,0,0,1,26.468,32.7v4.9a1.027,1.027,0,0,0,1.319.942A18.923,18.923,0,0,0,18.74,2.161Z" transform="translate(1076.35 887.463)" fill="#ffffff"/>
        <g id="Rectangle_4" data-name="Rectangle 4" transform="translate(1179 902)" fill="none" stroke="#ffffff" stroke-width="1">
          <rect width="56" height="56" rx="13" stroke="none"/>
          <rect x="0.5" y="0.5" width="55" height="55" rx="12.5" fill="none"/>
        </g>
        <path id="Simpleicons-Team-Simple-Vite" d="M11.467,14.646,12.176,2.66a.424.424,0,0,1,.342-.39L24.055.008a.424.424,0,0,1,.489.533L22.386,8.022a.424.424,0,0,0,.487.533l3.306-.637a.424.424,0,0,1,.46.606l-9.4,18.761-.17.263a.407.407,0,0,1-.349.194.422.422,0,0,1-.422-.511l1.516-7.34a.424.424,0,0,0-.537-.492l-1.984.6a.424.424,0,0,1-.539-.49l.955-4.673a.424.424,0,0,0-.512-.5l-3.212.742a.424.424,0,0,1-.518-.438ZM32.2,3.672,24.055,5.178,23.3,7.791l2.876-.554a1.116,1.116,0,0,1,1.21,1.6L17.856,27.595l-.018.035-.083.277-.169.263a1.109,1.109,0,0,1-.93.512,1.144,1.144,0,0,1-.878-.418,1.108,1.108,0,0,1-.222-.928l1.425-6.9-1.551.471a1.116,1.116,0,0,1-1.419-1.29l.872-4.265L12.076,16a1.115,1.115,0,0,1-1.364-1.153l.539-9.1L1.012,3.666A.847.847,0,0,0,.126,4.921L16.028,32.8A.847.847,0,0,0,17.5,32.8L33.095,4.918A.847.847,0,0,0,32.2,3.672Z" transform="translate(1189.986 913)" fill="#ffffff"/>
        <g id="Rectangle_7" data-name="Rectangle 7" transform="translate(987 958)" fill="none" stroke="#ffffff" stroke-width="1">
          <rect width="56" height="56" rx="13" stroke="none"/>
          <rect x="0.5" y="0.5" width="55" height="55" rx="12.5" fill="none"/>
        </g>
        <g id="Group_3" data-name="Group 3" transform="translate(515.688 754.451)">
          <path id="icons8-tailwind-css" d="M16.826,45.641c-3.295,0-5.151,2.251-8.226,5.981l0,0a.438.438,0,0,0,.677.558h0a4.012,4.012,0,0,1,2.977-1A9.325,9.325,0,0,1,19.222,54.3c3.089,3.571,6.018,5.537,8.248,5.537,3.633,0,6.677-2.918,8.142-7.808.067-.224-2.109,1.608-3.21,1.889a5.493,5.493,0,0,1-4.393-.981C26.949,52.079,20.99,45.641,16.826,45.641Zm0,.877c3.78,0,9.522,6.2,10.631,7.1a6.356,6.356,0,0,0,5.161,1.148,4.239,4.239,0,0,0,1.172-.491c-1.493,2.974-3.75,4.682-6.322,4.682-1.971,0-4.664-1.859-7.583-5.234a10.219,10.219,0,0,0-7.547-3.417c-.032,0,2.75-1.476,2.718-1.475-.557.006-3.9,1.542-4.367,1.65C12.878,47.91,14.43,46.518,16.828,46.518Zm.443.6a.219.219,0,1,0,0,.439c2.62,0,4.419,1.986,6.324,4.09a25.142,25.142,0,0,0,2.686,2.683,8.067,8.067,0,0,0,4.553,1.809,4.092,4.092,0,0,0,.672-.054.219.219,0,0,0-.071-.433c-1.849.307-3.937-.9-4.879-1.664S20.085,47.114,17.271,47.114Zm-1.071.065a6.573,6.573,0,0,0-3,1.288.219.219,0,0,0,.122.4.217.217,0,0,0,.122-.037,6.21,6.21,0,0,1,2.813-1.217.219.219,0,0,0,.188-.247A.217.217,0,0,0,16.2,47.179Z" transform="translate(472.502 184.763)" fill="#ffffff"/>
          <path id="icons8-tailwind-css-2" data-name="icons8-tailwind-css" d="M16.826,45.641c-3.295,0-5.151,2.251-8.226,5.981l0,0a.438.438,0,0,0,.677.558h0a4.012,4.012,0,0,1,2.977-1A9.325,9.325,0,0,1,19.222,54.3c3.089,3.571,6.018,5.537,8.248,5.537,3.633,0,6.677-2.918,8.142-7.808.067-.224-2.109,1.608-3.21,1.889a5.493,5.493,0,0,1-4.393-.981C26.949,52.079,20.99,45.641,16.826,45.641Zm0,.877c3.78,0,9.522,6.2,10.631,7.1a6.356,6.356,0,0,0,5.161,1.148,4.239,4.239,0,0,0,1.172-.491c-1.493,2.974-3.75,4.682-6.322,4.682-1.971,0-4.664-1.859-7.583-5.234a10.219,10.219,0,0,0-7.547-3.417c-.032,0,2.75-1.476,2.718-1.475-.557.006-3.9,1.542-4.367,1.65C12.878,47.91,14.43,46.518,16.828,46.518Zm.443.6a.219.219,0,1,0,0,.439c2.62,0,4.419,1.986,6.324,4.09a25.142,25.142,0,0,0,2.686,2.683,8.067,8.067,0,0,0,4.553,1.809,4.092,4.092,0,0,0,.672-.054.219.219,0,0,0-.071-.433c-1.849.307-3.937-.9-4.879-1.664S20.085,47.114,17.271,47.114Zm-1.071.065a6.573,6.573,0,0,0-3,1.288.219.219,0,0,0,.122.4.217.217,0,0,0,.122-.037,6.21,6.21,0,0,1,2.813-1.217.219.219,0,0,0,.188-.247A.217.217,0,0,0,16.2,47.179Z" transform="translate(482.01 172.859)" fill="#ffffff"/>
          <path id="Path_3" data-name="Path 3" d="M570.326,361.311l3.023-2.967L577,356.71l2.834.633,2.712,1.757,2.012,1.767,2.211,2.2,3.59,2.4h2.135l1.512-.69-.879,1.823-1.2,1.446-2.39.945,1.705-.2-3.76.763-2.415-1.5-.139.553-1.891-2-2.745-2.679-1.3-.854-2.622-1-3.014-.756Z" transform="translate(-87.867 -125.837)" fill="#ffffff"/>
          <path id="Path_4" data-name="Path 4" d="M570.326,361.311l3.023-2.967L577,356.71l2.834.633,2.712,1.757,2.012,1.767,2.211,2.2,3.59,2.4h2.135l1.512-.69-.879,1.823-1.2,1.446-2.39.945,1.705-.2-3.283,1.083L585,368.623l-2.609-1.854-1.785-2.31-1.976-1.391-2.267-1-3.014-.756Z" transform="translate(-78.359 -137.741)" fill="#ffffff"/>
        </g>
        <line id="Line_10" data-name="Line 10" x2="39" y2="39" transform="translate(1063.5 841.5)" fill="none" stroke="rgba(255,255,255, 0.9)" stroke-width="1"/>
        <line id="Line_11" data-name="Line 11" x2="99" y2="99" transform="translate(1124.5 902.5)" fill="none" stroke="rgba(255,255,255, 0.9)" stroke-width="1"/>
        <line id="Line_12" data-name="Line 12" x1="106" transform="translate(935.5 821.5)" fill="none" stroke="rgba(255,255,255, 0.9)" stroke-width="1"/>
        <line id="Line_13" data-name="Line 13" y2="56" transform="translate(1207.5 958.5)" fill="none" stroke="rgba(255,255,255, 0.9)" stroke-width="1"/>
        <line id="Line_14" data-name="Line 14" x1="27" y2="28" transform="translate(1124.5 874.5)" fill="none" stroke="#707070" stroke-width="1"/>
        <line id="Line_15" data-name="Line 15" x1="48" y2="47" transform="translate(1043.5 936.5)" fill="none" stroke="rgba(255,255,255, 0.9)" stroke-width="1"/>
        <line id="Line_16" data-name="Line 16" x1="50" y2="49.196" transform="translate(962.5 1014.5)" fill="none" stroke="rgba(255,255,255, 0.9)" stroke-width="1"/>
      </g>
    </g>
  </g>
</svg>